# xmcd
#
# Track frame offsets:
#	150
#	10425
#	32496
#	53950
#	69148
#	87279
#	103511
#	121158
#	140153
#	156152
#	173615
#	200319
#
# Disc length: 2896 seconds
#
# Revision: 0
# Processed by: cddbd v1.4PL0 Copyright (c) Steve Scherf et al.
# Submitted via: EasyCDDAExtractor 4.6.9.1
#
DISCID=960b4e0c
DTITLE=Kenny Chesney - No Shoes, No Shirt, No Problems
DYEAR=2002
DGENRE=Country
TTITLE0=Young
TTITLE1=I Remember
TTITLE2=A Lot Of Things Different
TTITLE3=The Good Stuff
TTITLE4=Big Star
TTITLE5=On The Coast Of Somewhere Beautiful
TTITLE6=Never Gonna Feel That Way Again
TTITLE7=Dreams
TTITLE8=No Shoes, No Shirt, No Problems
TTITLE9=Live Those Songs
TTITLE10=One Step Up
TTITLE11=I Can't Go There (Acoustic)
EXTD=
EXTT0=
EXTT1=
EXTT2=
EXTT3=
EXTT4=
EXTT5=
EXTT6=
EXTT7=
EXTT8=
EXTT9=
EXTT10=
EXTT11=
PLAYORDER=
